PathFileType  4	(X/Y/Z) C:\Users\antoi\Documents\MyRepositories\mobilecap\ResultsAnalysis
DataRate	CameraRate	NumFrames	NumMarkers	Units	OrigDataRate	OrigDataStartFrame	OrigNumFrames
100.0	100.0	4	51	mm	100.0	53	139
Frame#	Time	r_knee			r_shank_antsup			r_ankle			r_calc			r_5meta			r_toe			L_knee			L_shank_antsup			L_ankle			L_calc			L_5meta			L_toe			r_sh2			r_sh3			r_sh4			L_sh2			L_sh3			r_thigh1			r_thigh2			r_thigh3			r_thigh4			r_thigh5			L_thigh1			L_thigh2			L_thigh3			L_thigh4			r.ASIS			r.PSIS			L.ASIS			L.PSIS			C7			R_Shoulder			L_Shoulder			R_Sternum			L_Sternum			R_humerus			R_elbow_med			R_elbow_lat			R_forearm			R_wrist_radius			R_wrist_ulna			L_humerus			L_elbow_med			L_elbow_lat			L_forearm			L_wrist_radius			L_wrist_ulna			R_HJC			L_HJC			R_HJC_reg			L_HJC_reg			
		X1	Y1	Z1	X2	Y2	Z2	X3	Y3	Z3	X4	Y4	Z4	X5	Y5	Z5	X6	Y6	Z6	X7	Y7	Z7	X8	Y8	Z8	X9	Y9	Z9	X10	Y10	Z10	X11	Y11	Z11	X12	Y12	Z12	X13	Y13	Z13	X14	Y14	Z14	X15	Y15	Z15	X16	Y16	Z16	X17	Y17	Z17	X18	Y18	Z18	X19	Y19	Z19	X20	Y20	Z20	X21	Y21	Z21	X22	Y22	Z22	X23	Y23	Z23	X24	Y24	Z24	X25	Y25	Z25	X26	Y26	Z26	X27	Y27	Z27	X28	Y28	Z28	X29	Y29	Z29	X30	Y30	Z30	X31	Y31	Z31	X32	Y32	Z32	X33	Y33	Z33	X34	Y34	Z34	X35	Y35	Z35	X36	Y36	Z36	X37	Y37	Z37	X38	Y38	Z38	X39	Y39	Z39	X40	Y40	Z40	X41	Y41	Z41	X42	Y42	Z42	X43	Y43	Z43	X44	Y44	Z44	X45	Y45	Z45	X46	Y46	Z46	X47	Y47	Z47	X48	Y48	Z48	X49	Y49	Z49	X50	Y50	Z50	X51	Y51	Z51	

53	0.52000000	275.97826	484.26398	-111.78402	285.65447	382.60548	-125.22933	131.02844	98.06794	-169.91990	70.35195	65.46390	-223.68247	238.65978	43.71308	-114.44443	280.57111	68.18686	-167.96921	566.31077	502.73180	-372.31927	632.49463	449.22027	-356.19246	716.30630	123.37141	-356.05931	665.60735	51.17617	-308.58675	839.18292	107.81614	-381.29693	865.48884	154.38591	-325.37638	250.49517	276.21518	-139.64148	222.28689	397.45914	-86.38223	179.67291	291.10247	-96.43132	556.58111	429.21879	-403.10251	601.67395	315.63308	-408.74587	389.89416	748.90895	-68.18249	376.37345	640.26521	-90.92249	318.14671	618.82647	-62.84571	278.04926	755.31642	-45.92347	267.53645	643.96263	-76.09067	526.49870	752.66546	-372.19844	590.42237	630.31787	-346.19721	449.22971	701.50424	-432.19692	504.79781	584.31195	-396.70363	440.04583	947.78610	-98.68389	244.31666	972.71600	-216.35853	468.86532	946.02064	-354.76507	259.67852	961.99422	-306.51707	281.75138	1430.60378	-237.62533	339.82337	1404.18765	-71.66922	362.09179	1403.91066	-388.69625	408.57721	1361.37196	-207.43535	409.46396	1363.24886	-253.95540	393.45089	1284.43379	-16.21842	362.43857	1067.01730	-42.41313	365.79806	1083.56269	23.24314	439.23229	1045.89707	50.14055	552.95114	917.50338	33.57152	517.47478	903.89084	67.66471	362.80284	1265.65904	-459.12535	263.95626	1078.30492	-414.32771	264.41844	1096.16782	-491.72658	295.27553	1034.15514	-524.19094	298.22573	855.48646	-536.77614	257.39336	872.78284	-561.46165	363.63106	857.14827	-137.45585	391.69266	853.99277	-324.90885	365.79737	880.60272	-139.62560	394.17031	860.79997	-306.16123	
54	0.53000000	284.22124	483.14043	-112.62252	292.32969	381.20215	-126.14745	132.08009	99.53500	-170.25222	71.04040	67.29130	-223.89147	238.79708	43.61977	-114.49245	281.01279	67.78834	-167.90037	579.54017	501.37329	-372.05211	645.73223	447.87015	-355.88122	730.39617	122.46351	-355.54698	680.54443	49.47900	-308.08502	853.26685	108.39924	-381.30302	879.28594	154.87951	-325.17057	255.14905	275.44492	-140.36530	229.22372	397.23294	-87.21887	184.65153	291.75925	-97.16080	570.04243	427.60575	-403.04103	615.54581	314.19356	-408.54488	400.47469	746.79205	-68.43585	386.17273	638.21347	-91.18749	327.48689	617.27163	-63.74648	288.61446	754.15150	-46.79712	277.27009	643.00150	-77.25652	539.71585	751.11581	-371.90252	603.37156	628.73943	-345.55695	462.77359	700.06998	-432.31625	518.08275	582.80822	-396.66266	452.33245	945.42756	-98.73220	256.96731	970.79371	-216.91807	481.84789	943.94267	-355.01309	272.48875	960.13469	-307.08459	294.62962	1428.72289	-238.69421	352.50908	1402.26754	-72.50434	375.27640	1401.59698	-389.58597	421.45767	1359.24573	-208.14270	422.49236	1361.08707	-254.70157	406.01694	1282.54607	-17.01598	375.38898	1065.00288	-43.26214	378.72911	1081.66745	22.36155	452.31812	1044.23105	49.16997	566.61076	916.37211	32.41491	531.20684	902.57136	66.55936	375.81614	1263.21064	-459.83774	276.63587	1076.00305	-415.30774	277.27965	1093.91664	-492.68913	307.94995	1031.88720	-525.14051	309.80035	853.24082	-538.19545	268.88780	870.74176	-562.55423	375.92490	854.94551	-137.91312	404.41944	851.98630	-325.30289	378.11269	878.38120	-139.91756	406.80370	858.67949	-306.59525	
55	0.54000000	292.97385	481.97550	-113.59601	299.40932	379.76827	-127.15764	133.24602	101.23242	-170.54401	71.85187	69.48992	-224.07274	238.94368	43.53655	-114.52815	281.42473	67.33759	-167.83884	593.43419	500.40656	-371.59573	659.22892	446.21031	-355.50250	741.77708	120.72999	-355.07346	692.13023	47.59238	-307.44212	864.35931	106.95250	-381.67505	890.72212	153.04201	-325.44134	260.08896	274.71907	-141.14352	236.55066	397.01547	-88.14866	189.95979	292.55505	-97.95632	583.58184	426.33739	-402.82716	628.46476	312.73777	-408.21424	411.31602	744.71467	-68.88085	396.28377	636.22403	-91.62246	337.23300	615.71423	-64.74727	299.42138	752.90960	-47.86086	287.40102	641.96033	-78.57944	553.20936	749.90341	-371.90654	616.81547	627.62865	-345.10811	476.58450	698.76380	-432.52977	531.83826	581.57168	-396.61308	464.80123	943.14203	-98.89500	269.82732	968.92387	-217.30598	494.91826	942.19197	-355.34373	285.35761	958.53817	-307.44032	307.56136	1427.00732	-239.83834	365.37246	1400.56853	-73.49448	388.47248	1399.44810	-390.58664	434.42991	1357.30768	-209.00976	435.53414	1359.10774	-255.61224	418.64750	1280.82262	-17.90819	388.12808	1063.21270	-44.31030	391.42098	1079.91835	21.30521	465.09222	1042.64440	48.05296	579.79494	915.18289	31.13193	544.41859	901.22428	65.29693	389.03731	1260.92133	-460.62172	289.72822	1073.75106	-416.34579	290.58406	1091.69746	-493.72056	321.08765	1029.67468	-526.11081	321.89258	851.02308	-539.61001	280.92652	868.74058	-563.66637	388.48910	852.80543	-138.44933	417.24640	850.26668	-325.80278	390.79429	876.09479	-140.31633	419.54575	856.87103	-307.19121	
56	0.55000000	302.20141	480.78973	-114.68094	306.87931	378.32668	-128.23360	134.55034	103.18487	-170.77378	72.80606	72.11877	-224.21291	239.11463	43.47621	-114.53994	281.85379	66.85436	-167.76615	607.79470	499.73134	-370.96372	672.85384	444.22899	-355.02232	750.74876	118.30651	-354.64893	700.67285	45.66238	-306.76594	872.79340	103.67080	-382.37105	900.07663	149.06718	-326.11836	265.30576	274.07530	-141.95509	244.25723	396.84033	-89.14663	195.60055	293.51706	-98.78898	597.08113	425.32950	-402.43698	640.41999	311.22921	-407.73923	422.43366	742.68945	-69.51177	406.66184	634.31973	-92.21188	347.38643	614.20201	-65.78166	310.49641	751.62909	-49.09872	297.91544	640.85615	-80.02195	566.95654	749.02800	-372.19796	630.70610	626.96181	-344.84791	490.59620	697.58584	-432.81094	545.98093	580.59029	-396.52237	477.49220	940.94263	-99.17993	282.92169	967.14484	-217.59128	508.11205	940.73554	-355.77269	298.32189	957.18115	-307.63006	320.53679	1425.42465	-241.06606	378.39869	1399.10432	-74.64772	401.66432	1397.47435	-391.70039	447.50313	1355.56949	-210.03753	448.60113	1357.32203	-256.68705	431.35363	1279.27672	-18.91459	400.64168	1061.67186	-45.55215	403.84061	1078.34435	20.08256	477.54536	1041.14977	46.79254	592.49716	913.94432	29.72393	557.11064	899.86229	63.88265	402.45432	1258.80827	-461.48170	303.22533	1071.56331	-417.42871	304.29492	1089.54395	-494.80634	334.64237	1027.54185	-527.10904	334.52383	848.86794	-541.01026	293.53893	866.79080	-564.78368	401.33476	850.75066	-139.07396	430.20436	848.80927	-326.41473	403.82725	873.82609	-140.80572	432.40747	855.34081	-307.92186	
